<svg xmlns="http://www.w3.org/2000/svg" xmlns:xlink="http://www.w3.org/1999/xlink" viewBox="0 0 924.56 821.08"><defs><style>.cls-1,.cls-17{fill:#fff;}.cls-2{fill:#6ce0ff;}.cls-3{fill:#0b8eb2;}.cls-12,.cls-14,.cls-16,.cls-17,.cls-20,.cls-23,.cls-3,.cls-9{fill-rule:evenodd;}.cls-4{fill:#08769b;}.cls-5{mask:url(#mask);}.cls-6{fill:#81a6ff;}.cls-7{mask:url(#mask-2);}.cls-20,.cls-8{fill:#ff8181;}.cls-10,.cls-9{fill:#383838;}.cls-11{fill:none;stroke:#4f72c5;stroke-linecap:round;stroke-linejoin:round;stroke-width:3px;}.cls-12,.cls-19{fill:#c55858;}.cls-13{fill:#8c8c8c;}.cls-14{fill:#898989;}.cls-15{mask:url(#mask-3);}.cls-16{fill:#e0e0e0;isolation:isolate;opacity:0.65;}.cls-18{mask:url(#mask-4);}.cls-21{mask:url(#mask-5);}.cls-22{fill:#f2ff9e;}.cls-23{fill:#cedf62;}</style><mask id="mask" x="337.65" y="13.01" width="247.58" height="303.25" maskUnits="userSpaceOnUse"><g id="mask1"><path class="cls-1" d="M466.73,254.55l0,61.72-105.6-5.75L360,182.29a82.57,82.57,0,0,1-.57-9.74V98.37a82,82,0,0,1,82-82h50.36a82,82,0,0,1,82,82v74.18a82,82,0,0,1-82,82Z"/></g></mask><mask id="mask-2" x="337.26" y="0" width="247.58" height="316.24" maskUnits="userSpaceOnUse"><g id="mask2"><path class="cls-1" d="M466.34,254.51l0,61.73-105.6-5.75-1.07-128.24a82.32,82.32,0,0,1-.57-9.74V98.33a82,82,0,0,1,82-82h50.36a82,82,0,0,1,82,82v74.18a82,82,0,0,1-82,82Z"/></g></mask><mask id="mask-3" x="530.54" y="51.26" width="223.81" height="256.04" maskUnits="userSpaceOnUse"><g id="mask3"><path class="cls-1" d="M642.44,293.91c24.58,0,47.57-9,65.93-22.78,4.48-3.36,9-6.5,13-10.36a110.52,110.52,0,0,0,29.58-51.4,104,104,0,0,0,3.4-26.55c0-50.61-35.23-90.95-81.86-104.34-9.9-2.85-19.22-6.75-30-6.75-35.49,0-65.8,18-86.31,43.62-15.19,19-25.59,41.35-25.59,67.47,0,21.31,7.06,41.31,17.53,58.22C567.76,272.82,602.1,293.91,642.44,293.91Z"/></g></mask><mask id="mask-4" x="406.64" y="383.13" width="256.49" height="217.87" maskUnits="userSpaceOnUse"><g id="mask4"><path class="cls-1" d="M406.64,540.64l155.72-142.9a34.31,34.31,0,0,1,15.79-8.24l-3,13,54.44-18.62A14,14,0,0,1,647.12,392c.55,1.36,1.2,2.8,2,4.34q8.1,16.17,0,29.24,11.83,3.74,13.71,18.05T656,466a36,36,0,0,1-14.7,48.74c-1,.53-2,1-3,1.45l-3.44,1.45L511.35,558.69,487.67,601Z"/></g></mask><mask id="mask-5" x="312.64" y="138.5" width="68.5" height="115.5" maskUnits="userSpaceOnUse"><g id="mask5"><path class="cls-1" d="M342.19,159.48a55.55,55.55,0,0,0,9.56,4.7,14.77,14.77,0,0,0-7.45,3.74,41.15,41.15,0,0,0-11.8,40.63l.64,2.42a16.22,16.22,0,0,0,25.23,9l.63-.45a34.31,34.31,0,0,0,11.47-41l-2.27-5.42a15,15,0,0,0-2.83-4.37,14.76,14.76,0,0,0-5.5-3.75c.88-4.19,1.44-6.83,1.66-7.9a22.92,22.92,0,0,1,14,12.93l2.28,5.41A42.33,42.33,0,0,1,363.7,226l-.63.46A24.24,24.24,0,0,1,325.4,213l-.64-2.43a49.17,49.17,0,0,1,14.1-48.53A23.14,23.14,0,0,1,342.19,159.48Z"/></g></mask></defs><g id="Layer_2" data-name="Layer 2"><g id="Layer_1-2" data-name="Layer 1"><g id="mask0"><path class="cls-1" d="M229.48,264.13,641.8,362.51a49,49,0,0,1,37.36,52.78L640.49,783.46a42,42,0,0,1-46.15,37.39l-.76-.09L198.2,772a42,42,0,0,1-36.85-42.46l7.77-418.61a49,49,0,0,1,60.36-46.76Z"/></g><path class="cls-2" d="M229.48,264.13,641.8,362.51a49,49,0,0,1,37.36,52.78L640.49,783.46a42,42,0,0,1-46.15,37.39l-.76-.09L198.2,772a42,42,0,0,1-36.85-42.46l7.77-418.61a49,49,0,0,1,60.36-46.76Z"/><path class="cls-3" d="M160.65,711.94,405.64,538l86,66L373.14,806.5l-206-19.5q-5-33.09-6.5-50T160.65,711.94Z"/><path class="cls-4" d="M394.15,304.93a2.88,2.88,0,0,1,0,.41l-11.06,80.22A14,14,0,0,1,379.28,413l-6.71,48.71A14,14,0,0,1,368.81,489l-12.18,88.35a2.5,2.5,0,1,1-5-.68l12.18-88.33A14,14,0,0,1,367.62,461l6.73-48.85A14,14,0,0,1,378.09,385l11.08-80.38a3,3,0,0,1,.07-.32L248.15,356.5l89.5-67,103,24.5,42,91ZM603.27,496.82l4.76,1.55L507.28,807.28l-4.75-1.55ZM282.65,627l-120.5,84,7-406L190,361.7Z"/><g class="cls-5"><path class="cls-6" d="M451.41,253.22,440.65,314l-103-24,21.21-126.47a84.9,84.9,0,0,1,1.13-9.69l12.88-73a82,82,0,0,1,95-66.52L517.47,23A82,82,0,0,1,584,118L571.1,191.06a82,82,0,0,1-95,66.52Z"/></g><g class="cls-7"><path class="cls-8" d="M451,253.19,440.26,314l-103-24L358.48,163.5a80.62,80.62,0,0,1,1.13-9.69l12.88-73a82,82,0,0,1,95-66.52L517.08,23a82,82,0,0,1,66.51,95L570.71,191a82,82,0,0,1-95,66.52Z"/><path class="cls-9" d="M372.65,96.5,569.15,25,454.47,0,363.65,17.43Z"/></g><path class="cls-10" d="M330.43,44.87l-5.86-1.25a54,54,0,0,0-64.05,41.59l-1.25,5.87a54,54,0,0,0,41.59,64.05l5.87,1.25a54,54,0,0,0,64-41.59l1.25-5.87A54,54,0,0,0,330.43,44.87Z"/><path class="cls-9" d="M476.65,205.5l17.2,13.76a27.09,27.09,0,0,0,12,5.47l11.91,2.19a16.05,16.05,0,0,0,11.07-2L542.15,217,532.1,207a8,8,0,0,0-7.05-2.23l-4.4.78-8.37-4.95a8,8,0,0,0-5.62-1Z"/><path class="cls-11" d="M582.15,124c-14.08-4.93-29.32-3.17-46.75,3.55"/><path class="cls-12" d="M504.21,190.84l32.44,6.28a5,5,0,0,0,5.86-4,5.11,5.11,0,0,0-.1-2.3q-5.65-20.3-6.15-31.6-.59-13.4-5-11l1.39-24h-2.5q-17.64,43.23-19.5,49.5c-.78,2.6-11.32,3.81-12.39,9a7.26,7.26,0,0,0,.91,4.09A7,7,0,0,0,504.21,190.84Z"/><path class="cls-13" d="M626.63,303.31,609.55,300,563.74,535.65,580.82,539Z"/><path class="cls-10" d="M605.18,377.71l-3.61-.7A21,21,0,0,0,577,393.62L550.56,529.4A21,21,0,0,0,567.16,554l3.61.7a21,21,0,0,0,24.62-16.61l26.39-135.78A21,21,0,0,0,605.18,377.71Z"/><path class="cls-9" d="M622.29,269.74l3.61.7a21,21,0,0,1,16.61,24.62l-3.59,18.47a12,12,0,0,1-11.3,9.7,56.91,56.91,0,0,1-13-.73,66.35,66.35,0,0,1-13.58-4.6,12,12,0,0,1-7-13.27l3.55-18.29A21,21,0,0,1,622.29,269.74Z"/><path class="cls-14" d="M534.29,250.38c-21.14-33.84-22.61-73.54-11.14-108.38,8.85-26.89,24.52-50.9,50.23-67,20.14-12.58,41.56-17.38,63.27-18,13-.39,26.29-.48,39,3.5s29.46,11.72,41,20c13.88,10,22.17,21.38,31.47,36.26a129.9,129.9,0,0,1,19,59.24c.8,10.71-1.07,24.93-3,35-2.92,15.22-7.57,25.86-16,39.5-9.69,15.66-22.41,31.18-39.12,41.62-12.61,7.88-25.85,13.64-39.38,16.38-20,4.07-40.7,2.21-60.5-3.5a156,156,0,0,1-40-18C554.68,277.55,544,265.89,534.29,250.38ZM549,241.49c32,51.22,99.14,67,150,35.24s66.07-99,34.07-150.22-99.14-67-150-35.24S517,190.28,549,241.49Z"/><g class="cls-15"><path class="cls-1" d="M548.58,241.69c13,20.92,32.81,35.72,54.19,44,5.21,2,10.27,4.25,15.63,5.57a109.68,109.68,0,0,0,59.11-2.06,102.73,102.73,0,0,0,24.23-11.17c42.77-26.82,58.17-78.18,44.78-125-2.84-9.92-4.49-19.93-10.22-29.14-18.8-30.2-50.11-46.45-82.59-50.34-24.08-2.89-48.49.12-70.56,14-18,11.29-31.17,27.89-39.9,45.77C526.83,167,527.21,207.35,548.58,241.69Z"/><path class="cls-16" d="M662.84,165a68.38,68.38,0,0,0-13.77-4.3,81.29,81.29,0,0,0-16.44-1.48c-6.42-.07-12.57,1.11-18.91,2.56q-8.07,1.86-24.26,8.83,10.9,12.58,17.14,17.44c6.34,4.93,12.32,9.6,19.71,12.47,3.06,1.18,6.75,2.49,10.28,3.48l-58.06,86.26-46.12-64.3,166-174.67,25.55,23Zm17.52,10a80.88,80.88,0,0,0-7.39-4.9l59.1-86.33,6.37,2ZM660,206.28l-65.75,101-5.62-14,59.73-87.27c1.6.14,3.2.24,4.86.32A49.48,49.48,0,0,0,660,206.28Z"/><path class="cls-10" d="M663,208.76a56.45,56.45,0,0,1-9.87.26c-4-.25-6.86-.51-9.58-.94l-4.9,24.85a2.46,2.46,0,0,1-3,1.92,2.56,2.56,0,0,1-2-3l4.89-24.79a110.83,110.83,0,0,1-13.29-4.35,53.45,53.45,0,0,1-6.1-2.87l-14.6,12.33a2.56,2.56,0,0,1-3.58-.31,2.49,2.49,0,0,1,.24-3.53l13.37-11.28c-1.43-.94-2.9-2-4.47-3.13s-2.64-2-5.42-4.13c-4.35-3.36-10.24-9.27-17.73-17.77a2.47,2.47,0,0,1,.88-3.94c10.9-4.55,19.11-7.42,24.69-8.63,8.15-1.77,13.68-2.53,19.55-2.41a82.86,82.86,0,0,1,17,1.69,73.41,73.41,0,0,1,14.62,4.67,92.07,92.07,0,0,1,18,10.3q7,5.24,20.21,19.47a2.48,2.48,0,0,1-.79,4,177.56,177.56,0,0,1-18.29,7.11A144.61,144.61,0,0,1,668.21,208l6.53,14a2.47,2.47,0,0,1-1.23,3.31,2.58,2.58,0,0,1-3.36-1.28Zm18.28-9.27A149.43,149.43,0,0,0,695.82,194q-11.12-11.82-17.08-16.24a85.8,85.8,0,0,0-16.92-9.7,68,68,0,0,0-13.67-4.37,79.2,79.2,0,0,0-16-1.57c-5.38-.11-10.57.6-18.36,2.29q-7,1.53-20.63,7,9.27,10.29,14.67,14.48c2.76,2.12,3.88,3,5.34,4a59.52,59.52,0,0,0,13.94,8.13,98.22,98.22,0,0,0,13.76,4.4A75.88,75.88,0,0,0,653.37,204C661.39,204.52,669.22,203.08,681.31,199.49ZM643,193.39c-3.16-.7-6.69-4.2-8.15-6.95-1.24-2.33-1-4.83-.44-7.68a10.72,10.72,0,0,1,4.11-6.56,10.84,10.84,0,0,1,8.77-2.31c3.56.78,8.22,2.46,9.54,5.74.86,2.1,1.76,6.23,1.27,8.65s-2.41,4.71-4,6.26C651.6,193.05,646.59,194.18,643,193.39Z"/></g><path class="cls-17" d="M433.33,124.52Q437,143,463.7,151.62T504,146.44q-9.83-22.07-28.22-27.83T433.33,124.52Z"/><path class="cls-9" d="M479.49,146a8.57,8.57,0,0,0,7.46-3.56,10.32,10.32,0,0,0,1.68-5.33,9.82,9.82,0,0,0-.92-5.5,8.79,8.79,0,0,0-6.9-4.57,8.18,8.18,0,0,0-6.71,2.25,11.38,11.38,0,0,0-2.43,6.64,11.53,11.53,0,0,0,1.48,6.9A8,8,0,0,0,479.49,146Z"/><path class="cls-12" d="M432.9,124.6q29.69,3,46,8t25.64,14q-4.4-22.62-29.19-29.76T432.9,124.6Z"/><path class="cls-9" d="M510,141.56,464.14,100.5l3-15.5,56,52.5a8,8,0,0,1-9.74,5.88A8,8,0,0,1,510,141.56Z"/><path class="cls-9" d="M337.65,289.5,316.32,224a85,85,0,0,1,15.9-81.2L372.65,95Z"/><g class="cls-18"><path class="cls-8" d="M406.64,540.64l155.72-142.9a34.31,34.31,0,0,1,15.79-8.24l-3,13,54.44-18.62A14,14,0,0,1,647.12,392c.55,1.36,1.2,2.8,2,4.34q8.1,16.17,0,29.24,11.83,3.74,13.71,18.05T656,466a36,36,0,0,1-14.7,48.74c-1,.53-2,1-3,1.45l-3.44,1.45L511.35,558.69,487.67,601Z"/><path class="cls-12" d="M579.15,401l-37.51,16q11.4-16.62,20-23.5a40.51,40.51,0,0,1,20-8.5Z"/><path class="cls-19" d="M654.75,465.8a1.5,1.5,0,1,1,1.79,2.4A44.92,44.92,0,0,1,641,475.45a1.5,1.5,0,1,1-.77-2.9A42.19,42.19,0,0,0,654.75,465.8Zm-7.47-41.09a1.5,1.5,0,1,1,1.75,2.44,43.68,43.68,0,0,1-15.87,6.92,1.5,1.5,0,0,1-.67-2.93A40.61,40.61,0,0,0,647.28,424.71Z"/></g><path class="cls-20" d="M363.65,166c20.43,0,37-15.89,37-35.5S384.08,95,363.65,95s-37,15.89-37,35.5c0,15.32,10.12,28.38,24.3,33.35A38.3,38.3,0,0,0,363.65,166Z"/><g class="cls-21"><path class="cls-22" d="M342.19,159.48a55.55,55.55,0,0,0,9.56,4.7,14.77,14.77,0,0,0-7.45,3.74,41.15,41.15,0,0,0-11.8,40.63l.64,2.42a16.22,16.22,0,0,0,25.23,9l.63-.45a34.31,34.31,0,0,0,11.47-41l-2.27-5.42a15,15,0,0,0-2.83-4.37,14.76,14.76,0,0,0-5.5-3.75c.88-4.19,1.44-6.83,1.66-7.9a22.92,22.92,0,0,1,14,12.93l2.28,5.41A42.33,42.33,0,0,1,363.7,226l-.63.46A24.24,24.24,0,0,1,325.4,213l-.64-2.43a49.17,49.17,0,0,1,14.1-48.53A23.14,23.14,0,0,1,342.19,159.48Z"/><path class="cls-23" d="M327.14,142l36.5-3.5L345.14,254l-32.5-8Z"/></g><path class="cls-9" d="M122.12,72v75.42l69-15.94L127.3,168.54,191.14,191l-69-8.18L127.3,250l-26.74-61.63-37.1,49.56L87.61,178,15.14,153.46l72.47,3-24.15-53,37.1,39.22ZM794.91,516.8l-3.46-99.1-73.91,33.45L776.91,393,704,339.23l85.84,32L780,283.18l37.87,79.74,46.33-66.81-28.9,79.81,89.3,4.41-88.31,23.9,34.08,68.55-50.4-49.84Z"/><path class="cls-9" d="M22,442l19,47L4.25,484.12,40,501.9,0,531.65l49.32-18.27,12.93,42.36-1.56-42.45,40.88,21.26L69.8,501l40.41-25.5L66.43,491.16l18.12-47.37-30,38.36Z"/><path class="cls-12" d="M471.47,167.92a3,3,0,0,1-2.33-3.92c.38-1.61,1.53-2.42,3.68-1.92a3,3,0,0,1,2.32,3.92C474.77,167.61,473.62,168.42,471.47,167.92Zm21-1c-2.15-.49-2.69-1.31-2.32-2.92s1.52-3.42,3.67-2.92a3,3,0,0,1,2.33,3.92C495.78,166.61,494.63,167.42,492.47,166.92Zm-9,11a3,3,0,0,1-2.33-3.92c.38-1.61,1.53-2.42,3.68-1.92s2.7,1.81,2.33,3.42S485.62,178.42,483.47,177.92Zm-20,3c-2.15-.49-3.2-1.31-2.83-2.92s2-3.42,4.18-2.92,2.2,1.81,1.82,3.42S465.62,181.42,463.47,180.92Zm-14-17c-2.15-.49-3.2-1.81-2.83-3.42a3.36,3.36,0,0,1,4.18-2.42c2.15.49,2.7,2.81,2.32,4.42S451.62,164.42,449.47,163.92Z"/></g></g></svg>